<svg width="40" height="33" viewBox="0 0 40 33" fill="none" xmlns="http://www.w3.org/2000/svg">
<path d="M31.5753 11.3428C31.4944 5.46854 26.6589 0.714294 20.7268 0.714294C18.088 0.714294 15.5457 1.66788 13.5684 3.39942C11.8037 4.94471 10.5965 7.00977 10.1184 9.27702C10.0835 9.27665 10.0489 9.27635 10.0144 9.27635C4.94621 9.27642 0.822754 13.3726 0.822754 18.4074C0.822754 23.4422 4.94621 27.5383 10.0144 27.5383H13.388C13.8447 27.5383 14.2151 27.1705 14.2151 26.7167C14.2151 26.2628 13.8447 25.895 13.388 25.895H10.0144C5.85826 25.895 2.47701 22.536 2.47701 18.4074C2.47701 14.2787 5.85826 10.9198 10.0144 10.9198C10.2359 10.9198 10.4699 10.9316 10.7301 10.9559C11.1712 10.9965 11.5671 10.6853 11.6272 10.2488C11.925 8.08007 13.0029 6.08538 14.6623 4.63219C16.3373 3.16539 18.4909 2.35764 20.7267 2.35764C25.7971 2.35764 29.9221 6.45546 29.9221 11.4924C29.9221 11.6737 29.8881 12.1427 29.8881 12.1427C29.8709 12.3844 29.9619 12.6214 30.1371 12.7901C30.312 12.9589 30.5528 13.0422 30.7959 13.0182C31.0158 12.9961 31.2378 12.985 31.4555 12.985C35.0383 12.985 37.9533 15.8807 37.9533 19.44C37.9533 22.9991 35.0384 25.8948 31.4555 25.8948H27.7511C27.2944 25.8948 26.924 26.2627 26.924 26.7165C26.924 27.1703 27.2944 27.5382 27.7511 27.5382H31.4555C35.9505 27.5382 39.6076 23.9054 39.6076 19.44C39.6075 15.0146 36.0154 11.4067 31.5753 11.3428Z" fill="url(#paint0_linear)"/>
<path d="M20.7271 4.57623C17.2684 4.57623 14.3077 7.14389 13.8402 10.5487C13.7785 10.9984 14.0956 11.4113 14.5479 11.4739C15.0303 11.5408 15.4227 11.1828 15.4793 10.7709C15.8355 8.17627 18.0915 6.21965 20.7271 6.21965C21.1839 6.21965 21.5542 5.85182 21.5542 5.39798C21.5542 4.94406 21.1839 4.57623 20.7271 4.57623Z" fill="url(#paint1_linear)"/>
<path d="M24.5541 28.11C24.2498 27.7717 23.7269 27.7423 23.3861 28.0447L21.3965 29.8103V19.7017C21.3965 19.2479 21.0261 18.88 20.5694 18.88C20.1125 18.88 19.7423 19.2479 19.7423 19.7017V29.8103L17.7527 28.0446C17.4121 27.7423 16.8891 27.7717 16.5849 28.1099C16.2805 28.4484 16.3099 28.9677 16.6506 29.2702L19.6592 31.9403C19.9187 32.1707 20.244 32.2857 20.5693 32.2857C20.8946 32.2857 21.2199 32.1706 21.4793 31.9404L24.4881 29.2702C24.8289 28.968 24.8584 28.4485 24.5541 28.11Z" fill="url(#paint2_linear)"/>
<defs>
<linearGradient id="paint0_linear" x1="20.2152" y1="0.714294" x2="20.2152" y2="27.5383" gradientUnits="userSpaceOnUse">
<stop stop-color="#4CB0F4"/>
<stop offset="1" stop-color="#8526FF"/>
</linearGradient>
<linearGradient id="paint1_linear" x1="17.6934" y1="4.57623" x2="17.6934" y2="11.482" gradientUnits="userSpaceOnUse">
<stop stop-color="#4CB0F4"/>
<stop offset="1" stop-color="#8526FF"/>
</linearGradient>
<linearGradient id="paint2_linear" x1="20.5694" y1="18.88" x2="20.5694" y2="32.2857" gradientUnits="userSpaceOnUse">
<stop stop-color="#4CB0F4"/>
<stop offset="1" stop-color="#8526FF"/>
</linearGradient>
</defs>
</svg>
